<svg width="199" height="18" viewBox="0 0 199 18" fill="none" xmlns="http://www.w3.org/2000/svg">
          <path
    d="M59.3852 13.7179V0.479998C59.3852 0.270711 59.208 0.101051 58.9894 0.101051H54.5303C54.3117 0.101051 54.1345 0.270711 54.1345 0.479998V17.4063C54.1345 17.6156 54.3117 17.7853 54.5303 17.7853H72.9999C73.2185 17.7853 73.3957 17.6156 73.3957 17.4063V14.0968C73.3957 13.8875 73.2185 13.7179 72.9999 13.7179H59.3852Z"
    fill="white"
  />
          <path
    d="M74.7988 17.2111C74.6403 17.4637 74.8303 17.7853 75.138 17.7853H80.0239C80.1604 17.7853 80.2872 17.7179 80.3595 17.6071L82.486 14.3495H95.2036L97.3301 17.6071C97.4025 17.7179 97.5293 17.7853 97.6657 17.7853H102.815C103.123 17.7853 103.313 17.4637 103.155 17.2111L92.4694 0.183777C92.3978 0.0697517 92.2691 0 92.1301 0H85.8234C85.6844 0 85.5557 0.0697515 85.4841 0.183777L80.019 8.89263L74.7988 17.2111ZM88.8448 3.13263L93.1396 10.6863H84.4325L88.8448 3.13263Z"
    fill="white"
  />
          <path
    d="M126.049 6.16421C126.049 4.67368 125.732 3.13263 124.571 2.02105C123.226 0.732631 121.352 0.101051 115.785 0.101051H104.967C104.749 0.101051 104.571 0.270711 104.571 0.479998V17.4063C104.571 17.6156 104.749 17.7853 104.967 17.7853H109.426C109.645 17.7853 109.822 17.6156 109.822 17.4063V12.3032H115.917C121.141 12.3032 123.173 11.5958 124.492 10.3326C125.759 9.11999 126.049 7.6042 126.049 6.16421ZM120.218 4.82526C120.614 5.20421 120.772 5.63368 120.772 6.31579C120.772 6.9221 120.587 7.42737 120.244 7.75579C119.558 8.41263 118.133 8.58947 115.706 8.58947H109.822V4.16842H115.706C118.397 4.16842 119.637 4.26947 120.218 4.82526Z"
    fill="white"
  />
          <path
    d="M133.424 13.7179V0.479998C133.424 0.270711 133.247 0.101051 133.029 0.101051H128.57C128.351 0.101051 128.174 0.270711 128.174 0.479998V17.4063C128.174 17.6156 128.351 17.7853 128.57 17.7853H147.039C147.258 17.7853 147.435 17.6156 147.435 17.4063V13.7179H133.424Z"
    fill="white"
  />
          <path
    d="M154.731 6.97263V4.11789H170.219V0.479998C170.219 0.270711 170.042 0.101051 169.823 0.101051H149.982C149.763 0.101051 149.586 0.270711 149.586 0.479998V17.4063C149.586 17.6156 149.763 17.7853 149.982 17.7853H169.823C170.042 17.7853 170.219 17.6156 170.219 17.4063V13.7684H154.731V10.7368H169.718V6.97263H154.731Z"
    fill="white"
  />
          <path
    d="M185.744 11.4189L192.475 17.6781C192.549 17.7468 192.648 17.7852 192.751 17.7852H198.603C198.962 17.7852 199.136 17.3649 198.874 17.1299L189.563 8.76629L198.631 0.758536C198.896 0.524612 198.723 0.101028 198.363 0.101028H193.09C192.989 0.101028 192.891 0.138305 192.818 0.205167L186.041 6.36629L179.447 0.208691C179.373 0.139664 179.274 0.101028 179.171 0.101028H173.318C172.959 0.101028 172.786 0.521321 173.047 0.756326L182.245 9.01892L173.042 17.1274C172.776 17.3612 172.949 17.7852 173.31 17.7852H178.58C178.682 17.7852 178.779 17.748 178.853 17.6811L185.744 11.4189Z"
    fill="white"
  />
          <path
    fill-rule="evenodd"
    clip-rule="evenodd"
    d="M25.3957 9.00632C25.3957 11.5326 26.1345 13.1495 27.8759 14.8168C29.6701 16.5347 32.9683 18 38.6675 18C44.3667 18 47.6648 16.5347 49.459 14.8168C51.2004 13.1495 51.9392 11.5326 51.9392 9.00632C51.9392 6.48001 51.2004 4.86317 49.459 3.1958C47.6648 1.47791 44.3667 0.0126444 38.6675 0.0126439C32.9683 0.0126439 29.6701 1.47791 27.8759 3.1958C26.1345 4.86317 25.3957 6.48001 25.3957 9.00632ZM32.1503 12.2653C33.2321 13.3011 35.5012 14.1853 38.6675 14.1853C41.8337 14.1853 44.1028 13.3011 45.1846 12.2653C45.9761 11.5074 46.583 10.9011 46.583 9.00632C46.583 7.11159 45.9762 6.50527 45.1846 5.74738C44.1028 4.71159 41.8337 3.82738 38.6675 3.82738C35.5012 3.82738 33.2321 4.71159 32.1503 5.74738C31.3588 6.50527 30.7519 7.11159 30.7519 9.00632C30.7519 10.9011 31.3588 11.5074 32.1503 12.2653Z"
    fill="white"
  />
          <path
    d="M5.25065 0.479998C5.25065 0.270711 5.07345 0.101051 4.85487 0.101051H0.395777C0.177195 0.101051 0 0.270711 0 0.479998V17.4063C0 17.6156 0.177196 17.7853 0.395777 17.7853H4.85487C5.07345 17.7853 5.25065 17.6156 5.25065 17.4063V12.5287L18.1002 9.48824V17.4063C18.1002 17.6156 18.2774 17.7853 18.496 17.7853H22.9551C23.1737 17.7853 23.3509 17.6156 23.3509 17.4063V0.479998C23.3509 0.270712 23.1737 0.101051 22.9551 0.101051H18.496C18.2774 0.101051 18.1002 0.270711 18.1002 0.479998V5.32016L5.25065 8.36058V0.479998Z"
    fill="white"
  />
</svg>
